# xmcd CD database file
# Copyright (C) 1993-1998 Ti Kan
# 
# Track frame offsets:
#     150
#     18492
#     35762
#     52820
#     69615
#     89152
#     114995
#     129922
#     147952
#     168082
#     183850
#     202210
#     222845
# 
# Disc length: 3294 seconds
# 
# Revision: 1
# Processed by: cddbd v1.4b41PL1 Copyright (c) Steve Scherf et al.
# Submitted via: DiscPlay 4.0.4
# 
DISCID=ba0cdc0d
DTITLE=Rhythm Method - New Blood
DYEAR=1900
DGENRE=
TTITLE0=I'm Not Afraid
TTITLE1=Why Should I
TTITLE2=At All
TTITLE3=New Blood
TTITLE4=I
TTITLE5=Confession
TTITLE6=I'll Never
TTITLE7=I Give You the Monster
TTITLE8=Come Down
TTITLE9=Finnally
TTITLE10=No Name For It
TTITLE11=I'm Not Afraid (Phobic Mix)
TTITLE12=At All (Phobic Mix)
EXTD=
EXTT0=
EXTT1=
EXTT2=
EXTT3=
EXTT4=
EXTT5=
EXTT6=
EXTT7=
EXTT8=
EXTT9=
EXTT10=
EXTT11=
EXTT12=
PLAYORDER=
